<svg width="34" height="25" viewBox="0 0 34 25" fill="none" xmlns="http://www.w3.org/2000/svg">
<rect x="0.5" y="1" width="33" height="23" rx="3.5" fill="white"/>
<rect x="0.5" y="1" width="33" height="23" rx="3.5" stroke="#F2F4F7"/>
<path fill-rule="evenodd" clip-rule="evenodd" d="M9.44921 8.84316C9.16382 9.19506 8.70721 9.47261 8.2506 9.43296C8.19353 8.95715 8.41707 8.45161 8.67867 8.13936C8.96406 7.77755 9.46348 7.51983 9.86777 7.5C9.91533 7.99563 9.72983 8.48135 9.44921 8.84316ZM9.86297 9.52712C9.46071 9.503 9.09366 9.65319 8.79718 9.7745C8.60639 9.85256 8.44483 9.91867 8.32191 9.91867C8.18397 9.91867 8.01574 9.84903 7.82685 9.77084L7.82685 9.77084C7.57935 9.66838 7.29638 9.55124 6.99964 9.55686C6.31948 9.56677 5.68688 9.96823 5.33967 10.6076C4.62621 11.8863 5.15417 13.7796 5.84384 14.8205C6.18155 15.3359 6.58584 15.9009 7.11855 15.8811C7.35291 15.8719 7.5215 15.7973 7.69597 15.7202C7.89683 15.6314 8.10549 15.5391 8.43131 15.5391C8.74582 15.5391 8.94536 15.629 9.1369 15.7152C9.31903 15.7973 9.49393 15.876 9.75358 15.8712C10.3053 15.8613 10.6525 15.3557 10.9902 14.8403C11.3547 14.2871 11.5148 13.7471 11.5391 13.6652L11.542 13.6557C11.5414 13.6551 11.5369 13.653 11.5289 13.6492C11.4071 13.5911 10.476 13.1469 10.467 11.9557C10.4581 10.9559 11.2056 10.4494 11.3233 10.3696L11.3233 10.3696C11.3304 10.3648 11.3353 10.3615 11.3374 10.3598C10.8618 9.62625 10.1198 9.54695 9.86297 9.52712ZM13.6824 15.8167V8.0898H16.4649C17.9013 8.0898 18.9049 9.12071 18.9049 10.6274C18.9049 12.1341 17.8822 13.175 16.4268 13.175H14.8334V15.8167H13.6824ZM14.8333 9.10088H16.1603C17.1592 9.10088 17.7299 9.65599 17.7299 10.6324C17.7299 11.6088 17.1592 12.1688 16.1556 12.1688H14.8333V9.10088ZM22.7053 14.8898C22.4009 15.4945 21.7302 15.8761 21.0072 15.8761C19.9371 15.8761 19.1903 15.212 19.1903 14.2108C19.1903 13.2196 19.9133 12.6496 21.2498 12.5653L22.6862 12.4761V12.0499C22.6862 11.4204 22.2915 11.0784 21.5875 11.0784C21.0072 11.0784 20.5839 11.3907 20.4983 11.8665H19.4614C19.4947 10.8653 20.3984 10.1368 21.6208 10.1368C22.9383 10.1368 23.7945 10.8554 23.7945 11.9706V15.8167H22.729V14.8898H22.7053ZM21.3163 14.9592C20.7027 14.9592 20.3127 14.6519 20.3127 14.1811C20.3127 13.6954 20.6885 13.4129 21.4067 13.3683L22.6861 13.284V13.7202C22.6861 14.4438 22.0964 14.9592 21.3163 14.9592ZM27.3284 16.119C26.867 17.4721 26.3391 17.9181 25.2166 17.9181C25.131 17.9181 24.8456 17.9082 24.779 17.8884V16.9616C24.8503 16.9715 25.0263 16.9814 25.1167 16.9814C25.6256 16.9814 25.911 16.7584 26.087 16.1785L26.1916 15.8365L24.2415 10.2111H25.4449L26.8004 14.7759H26.8242L28.1798 10.2111H29.3499L27.3284 16.119Z" fill="black"/>
</svg>
