<svg width="24" height="24" viewBox="0 0 24 24" fill="none" xmlns="http://www.w3.org/2000/svg">
<g clip-path="url(#clip0_257_9370)">
<path d="M18.583 12.5786H21.3953V19.3124H18.583V12.5786Z" fill="#168E2C"/>
<path d="M13.2568 12.5786H16.0693V19.3124H13.2568V12.5786Z" fill="#168E2C"/>
<path d="M7.93164 12.5786H10.7441V19.3124H7.93164V12.5786Z" fill="#168E2C"/>
<path d="M2.60547 12.5786H5.41778V19.3124H2.60547V12.5786Z" fill="#168E2C"/>
<path d="M22.3327 10.4692V9.76605H1.66797V10.4692C1.66797 10.8575 1.98273 11.1723 2.37109 11.1723H21.6296C22.0177 11.1723 22.3327 10.8575 22.3327 10.4692Z" fill="#168E2C"/>
<path d="M23.2967 20.7187H0.704101C0.315735 20.7187 0.000976562 21.0334 0.000976562 21.4218V23.2968C0.000976562 23.6852 0.315735 23.9999 0.704101 23.9999H23.2967C23.6851 23.9999 23.9999 23.6852 23.9999 23.2968V21.4218C23.9999 21.0334 23.6851 20.7187 23.2967 20.7187Z" fill="#168E2C"/>
<path d="M0.703062 8.35986H23.2968C23.6114 8.35986 23.8877 8.15094 23.9734 7.84826C24.0589 7.54559 23.9333 7.22277 23.6654 7.05798L12.3685 0.10437C12.1426 -0.03479 11.8575 -0.03479 11.6313 0.10437L0.334471 7.05798C0.0665876 7.22296 -0.0590227 7.54559 0.0266706 7.84826C0.112364 8.15094 0.38867 8.35986 0.703062 8.35986ZM11.522 4.13562H12.478C12.8664 4.13562 13.1811 4.45038 13.1811 4.83874C13.1811 5.22711 12.8664 5.54187 12.478 5.54187H11.522C11.1337 5.54187 10.8189 5.22711 10.8189 4.83874C10.8189 4.45038 11.1337 4.13562 11.522 4.13562Z" fill="#168E2C"/>
</g>
<defs>
<clipPath id="clip0_257_9370">
<rect width="24" height="24" fill="white"/>
</clipPath>
</defs>
</svg>
