<svg xmlns="http://www.w3.org/2000/svg" viewBox="0 0 48 32" width="48" height="32"><rect width="48" height="32" rx="4" fill="#FF6000"/><path d="M8 14h2.5c1.4 0 2.5 1.1 2.5 2.5S11.9 19 10.5 19H8v-5zm2.5 4c.8 0 1.5-.7 1.5-1.5S11.3 15 10.5 15H9v3h1.5zm3 1h1v-5h-1v5zm4-1.5c0-.8-.7-1.5-1.5-1.5s-1.5.7-1.5 1.5.7 1.5 1.5 1.5.8 0 1.1-.2l-.3-.8c-.2.1-.4.2-.7.2-.5 0-.8-.3-.9-.7h2.3v-.5zm-2.3-.5c.1-.4.4-.7.8-.7s.7.3.8.7h-1.6zm5.3 2.5c.8 0 1.4-.3 1.8-.8l-.7-.6c-.3.3-.6.5-1.1.5-.8 0-1.5-.7-1.5-1.5s.7-1.5 1.5-1.5c.5 0 .8.2 1.1.5l.7-.6c-.4-.5-1-.8-1.8-.8-1.4 0-2.5 1.1-2.5 2.5s1.1 2.5 2.5 2.5zm5.5-5l-2 5h1.1l.4-1h2l.4 1H29l-2-5h-1.2zm-.1 3.2l.6-1.5.6 1.5h-1.2zm5.1 1.8l-1.6-5h-1.2l2 5.8h1.6l2-5.8h-1.2l-1.6 5zm5-1.3c0 .8.6 1.3 1.5 1.3.5 0 .9-.1 1.3-.4v-1c-.3.2-.7.3-1 .3-.5 0-.8-.3-.8-.7 0-.4.3-.7.8-.7.3 0 .7.1 1 .3v-1c-.4-.2-.8-.4-1.3-.4-.9 0-1.5.5-1.5 1.3z" fill="white"/><circle cx="38" cy="16" r="6" fill="#FFAA00"/></svg>
