<svg width="34" height="25" viewBox="0 0 34 25" fill="none" xmlns="http://www.w3.org/2000/svg">
<rect x="0.5" y="1" width="33" height="23" rx="3.5" fill="white"/>
<rect x="0.5" y="1" width="33" height="23" rx="3.5" stroke="#F2F4F7"/>
<path d="M26.7109 14.6296H26.7285L28.1455 11.071H29.1426L26.0791 18.2057H25.1338L26.2725 15.7106L24.2627 11.071H25.2588L26.7109 14.6296ZM21.917 10.9098C22.5944 10.9099 23.1296 11.0948 23.5225 11.4587C23.9152 11.8226 24.1084 12.3312 24.1084 12.9723V16.028H23.2324V15.3405H23.1924C22.8109 15.9066 22.3096 16.19 21.6777 16.1901C21.1426 16.1901 20.6868 16.0281 20.3281 15.7048C19.9751 15.4044 19.7757 14.9588 19.7871 14.4909C19.7872 13.9769 19.9809 13.5724 20.3623 13.2663C20.7437 12.9603 21.2561 12.8103 21.8936 12.8102C22.4401 12.8102 22.8843 12.9146 23.2373 13.111V12.8971C23.2373 12.5796 23.1012 12.2789 22.8623 12.071C22.6175 11.8515 22.304 11.7302 21.9795 11.7302C21.4671 11.7302 21.0627 11.9494 20.7666 12.3884L19.958 11.8747C20.3908 11.2335 21.0458 10.9098 21.917 10.9098ZM17.5723 8.78387C18.1587 8.77238 18.7279 8.99788 19.1436 9.41375C19.9747 10.1994 20.0259 11.5216 19.2461 12.3708L19.1436 12.4753C18.7166 12.8853 18.1928 13.0934 17.5723 13.0934H16.0576V16.028H15.1406V8.78387H17.5723ZM22.0361 13.5612C21.6661 13.5613 21.353 13.6537 21.1025 13.8327C20.8577 14.0117 20.7325 14.237 20.7324 14.5085C20.7324 14.751 20.8463 14.9763 21.0342 15.1149C21.2392 15.2767 21.4898 15.3639 21.7461 15.3581C22.1332 15.3581 22.503 15.2016 22.7764 14.9245C23.0782 14.6356 23.2324 14.2949 23.2324 13.902C22.9477 13.671 22.5487 13.5554 22.0361 13.5612ZM16.0576 12.2038H17.5947C17.9364 12.2153 18.2675 12.0762 18.501 11.8278C18.979 11.3252 18.967 10.5171 18.4717 10.0319C18.2382 9.80085 17.925 9.67351 17.5947 9.67351H16.0576V12.2038Z" fill="#3C4043"/>
<path d="M12.8936 12.4578C12.8936 12.1747 12.8708 11.8917 12.8253 11.6144H8.95898V13.2146H11.174C11.0829 13.7287 10.7868 14.1909 10.354 14.4797V15.5195H11.6751C12.4495 14.7974 12.8936 13.7287 12.8936 12.4578Z" fill="#4285F4"/>
<path d="M8.95915 16.5247C10.0638 16.5247 10.9976 16.155 11.6752 15.5196L10.3542 14.4797C9.98408 14.7339 9.51147 14.8783 8.95915 14.8783C7.88866 14.8783 6.9833 14.1447 6.65874 13.1626H5.29785V14.2371C5.99253 15.6409 7.41036 16.5247 8.95915 16.5247Z" fill="#34A853"/>
<path d="M6.65846 13.1626C6.48761 12.6485 6.48761 12.0882 6.65846 11.5682V10.4995H5.29736C4.71078 11.6722 4.71078 13.0587 5.29736 14.2314L6.65846 13.1626Z" fill="#FBBC04"/>
<path d="M8.95915 9.85247C9.54564 9.84092 10.1094 10.0662 10.5307 10.4764L11.7037 9.28634C10.9578 8.58156 9.97839 8.19451 8.95915 8.20606C7.41036 8.20606 5.99253 9.0957 5.29785 10.4995L6.65874 11.574C6.9833 10.5861 7.88866 9.85247 8.95915 9.85247Z" fill="#EA4335"/>
</svg>
