<svg width="20" height="20" viewBox="0 0 24 24" fill="none" xmlns="http://www.w3.org/2000/svg">
  <path d="M22.56 12.25C22.56 11.47 22.49 10.72 22.36 10H12V14.26H17.92C17.66 15.63 16.88 16.79 15.71 17.57V20.34H19.28C21.36 18.42 22.56 15.6 22.56 12.25Z" fill="#4285F4"/>
  <path d="M12 23C15.24 23 17.95 21.92 19.28 20.34L15.71 17.57C14.74 18.22 13.48 18.62 12 18.62C8.87 18.62 6.22 16.69 5.35 14.04H1.64V16.96C2.96 19.58 7.16 23 12 23Z" fill="#34A853"/>
  <path d="M5.35 14.04C5.13 13.39 5 12.7 5 12S5.13 10.61 5.35 9.96V7.04H1.64C0.59 9.13 0 10.51 0 12S0.59 14.87 1.64 16.96L5.35 14.04Z" fill="#FBBC05"/>
  <path d="M12 5.38C13.62 5.38 15.06 5.94 16.21 7.02L19.36 3.87C17.95 2.61 15.24 1 12 1C7.16 1 2.96 4.42 1.64 7.04L5.35 9.96C6.22 7.31 8.87 5.38 12 5.38Z" fill="#EA4335"/>
</svg>


