<svg width="100" height="100" viewBox="0 0 100 100" fill="none" xmlns="http://www.w3.org/2000/svg">
<path d="M30.93 34.5635H27.0449V26.3315H19.8574V34.5635H16V16.221H19.8574V23.1271H27.0449V16.221H30.93V34.5635Z" fill="#3AB75C"/>
<path d="M39.9797 29.3978L40.0074 27.9061C39.6467 28.2652 39.0084 28.4586 37.6764 28.7072C35.6228 29.0939 34.9568 29.674 34.9568 30.8343C34.9568 31.8564 35.5673 32.3536 36.7051 32.3536C38.5644 32.3536 39.9519 31 39.9797 29.3978ZM43.615 34.5635H40.2572C40.1462 34.232 40.0629 33.7624 40.0352 33.3481C39.1749 34.2873 37.7319 34.9227 35.9003 34.9227C32.7922 34.9227 31.3491 33.4033 31.3491 31.1934C31.3491 27.2707 33.9855 26.8287 37.6209 26.3315C39.4247 26.0829 39.9242 25.7238 39.9242 24.7845C39.9242 23.9006 39.0361 23.3757 37.6209 23.3757C35.9835 23.3757 35.3175 24.1768 35.151 25.3923H31.7932C31.8487 22.5746 33.4027 20.6133 37.7874 20.6133C42.1165 20.6133 43.615 22.547 43.615 25.9724V34.5635Z" fill="#3AB75C"/>
<path d="M56.9221 34.5635H53.2867V26.3315C53.2867 24.232 52.6762 23.6519 50.9557 23.6519C49.0686 23.6519 48.1528 24.7017 48.1528 26.7735V34.5635H44.5452V20.9724H47.9863V22.9613C48.8189 21.442 50.2064 20.6133 52.3987 20.6133C55.0073 20.6133 56.9221 22.1878 56.9221 25.1436V34.5635Z" fill="#3AB75C"/>
<path d="M64.3072 31.9945C66.0277 31.9945 67.3598 30.3923 67.3598 28.0994C67.3598 25.1436 66.333 23.6796 64.3349 23.6796C62.2259 23.6796 61.2268 25.0884 61.2268 27.8785C61.2268 30.3094 62.5034 31.9945 64.3072 31.9945ZM70.7731 34.5635H67.3043L67.2765 32.9061C66.4163 34.2873 65.1397 34.9227 63.4747 34.9227C60.0336 34.9227 57.5637 32.2155 57.5637 27.6298C57.5637 23.5138 59.645 20.6133 63.1694 20.6133C64.8622 20.6133 66.1942 21.3039 67.221 22.7403V16H70.7731V34.5635Z" fill="#3AB75C"/>
<path d="M80.3924 34.9779V32.768C79.8929 33.9834 78.3943 34.7017 76.7015 34.7017C73.8432 34.7017 71.7064 32.768 71.7064 29.7845V20.9724H75.314V29.2597C75.314 30.9448 76.091 31.8011 77.6173 31.8011C79.2546 31.8011 80.3924 30.7238 80.3924 29.2597V20.9724H84V34.9227C84 38.7624 81.2249 41 77.7283 41C73.7322 41 71.7064 38.8177 71.7064 35.3094H75.0642C75.0642 36.9116 76.0077 37.9061 77.8948 37.9061C79.1991 37.9061 80.3924 36.7735 80.3924 34.9779Z" fill="#3AB75C"/>
<path d="M22.7451 55.2062H29.1505C33.0326 55.2062 34.634 53.1951 34.634 50.3501C34.634 47.6522 33.0326 45.641 29.1505 45.641H22.7451V55.2062ZM22.7451 72.5708H16V40H30.2181C36.5265 40 40.5542 44.66 40.5542 50.5463C40.5542 56.4816 36.5265 60.7492 30.2181 60.7492H22.7451V72.5708Z" fill="#3AB75C"/>
<path d="M54.5196 63.398L54.5681 60.7492C53.9372 61.3868 52.8211 61.7302 50.4919 62.1717C46.901 62.8584 45.7363 63.8885 45.7363 65.9487C45.7363 67.7637 46.8039 68.6466 48.7935 68.6466C52.0447 68.6466 54.471 66.243 54.5196 63.398ZM60.8765 72.5708H55.0048C54.8107 71.9822 54.6651 71.1483 54.6166 70.4125C53.1123 72.0803 50.5889 73.2085 47.3862 73.2085C41.9513 73.2085 39.428 70.5106 39.428 66.5864C39.428 59.621 44.0379 58.8361 50.3948 57.9532C53.549 57.5117 54.4225 56.874 54.4225 55.2062C54.4225 53.6366 52.8697 52.7046 50.3948 52.7046C47.5318 52.7046 46.3672 54.1271 46.076 56.2854H40.2044C40.3014 51.2821 43.0189 47.7993 50.686 47.7993C58.2561 47.7993 60.8765 51.233 60.8765 57.3155V72.5708Z" fill="#3AB75C"/>
<path d="M77.6916 73.3066V69.3824C76.8181 71.5407 74.1977 72.8161 71.2377 72.8161C66.2395 72.8161 62.503 69.3824 62.503 64.0847V48.437H68.8114V63.1527C68.8114 66.1449 70.1701 67.6656 72.839 67.6656C75.702 67.6656 77.6916 65.7525 77.6916 63.1527V48.437H84V73.2085C84 80.0268 79.1474 84 73.0331 84C66.0454 84 62.503 80.1249 62.503 73.8952H68.3746C68.3746 76.7402 70.0245 78.5061 73.3243 78.5061C75.605 78.5061 77.6916 76.495 77.6916 73.3066Z" fill="#3AB75C"/>
</svg>
