<svg width="139" height="33" viewBox="0 0 139 33" fill="none" xmlns="http://www.w3.org/2000/svg">
<path d="M19.9714 24H15.0001V13.4182H5.80318V24H0.867388V0.421846H5.80318V9.29916H15.0001V0.421846H19.9714V24ZM31.5511 17.3598L31.5866 15.4423C31.125 15.9039 30.3083 16.1525 28.6038 16.472C25.9762 16.9692 25.1239 17.7149 25.1239 19.2062C25.1239 20.5201 25.9051 21.1593 27.361 21.1593C29.7401 21.1593 31.5156 19.4193 31.5511 17.3598ZM36.2028 24H31.9062C31.7642 23.5739 31.6576 22.9702 31.6221 22.4376C30.5213 23.6449 28.6749 24.4616 26.3312 24.4616C22.3542 24.4616 20.5077 22.5086 20.5077 19.6679C20.5077 14.6256 23.8811 14.0574 28.5328 13.4182C30.8409 13.0987 31.4801 12.637 31.4801 11.4297C31.4801 10.2934 30.3438 9.61875 28.5328 9.61875C26.4378 9.61875 25.5855 10.6485 25.3725 12.2109H21.0759C21.1469 8.58898 23.1354 6.06782 28.7459 6.06782C34.2853 6.06782 36.2028 8.55347 36.2028 12.9566V24ZM53.2302 24H48.5785V13.4182C48.5785 10.7195 47.7973 9.97384 45.5957 9.97384C43.1811 9.97384 42.0092 11.3232 42.0092 13.9864V24H37.393V6.52944H41.7962V9.08611C42.8615 7.1331 44.6369 6.06782 47.4422 6.06782C50.78 6.06782 53.2302 8.09185 53.2302 11.8913V24ZM62.6799 20.6976C64.8815 20.6976 66.5859 18.6381 66.5859 15.6908C66.5859 11.8913 65.2721 10.0093 62.7154 10.0093C60.0167 10.0093 58.7384 11.8203 58.7384 15.4068C58.7384 18.5316 60.3718 20.6976 62.6799 20.6976ZM70.9536 24H66.5149L66.4794 21.8694C65.3786 23.6449 63.7452 24.4616 61.6146 24.4616C57.2115 24.4616 54.0512 20.9817 54.0512 15.0872C54.0512 9.79629 56.7143 6.06782 61.224 6.06782C63.3901 6.06782 65.0945 6.95555 66.4084 8.80203V0.137772H70.9536V24ZM83.2621 24.5326V21.6919C82.6229 23.2543 80.7054 24.1775 78.5393 24.1775C74.8819 24.1775 72.1477 21.6919 72.1477 17.8569V6.52944H76.7639V17.1822C76.7639 19.3483 77.7581 20.4491 79.7111 20.4491C81.8062 20.4491 83.2621 19.0642 83.2621 17.1822V6.52944H87.8783V24.4616C87.8783 29.3974 84.3273 32.2737 79.8532 32.2737C74.7398 32.2737 72.1477 29.4684 72.1477 24.9588H76.4443C76.4443 27.0183 77.6516 28.2966 80.0662 28.2966C81.7352 28.2966 83.2621 26.8407 83.2621 24.5326ZM93.9555 11.4297H98.6427C101.483 11.4297 102.655 9.97384 102.655 7.9143C102.655 5.96129 101.483 4.50541 98.6427 4.50541H93.9555V11.4297ZM93.9555 24H89.0197V0.421846H99.4239C104.04 0.421846 106.987 3.79523 106.987 8.05634C106.987 12.353 104.04 15.4423 99.4239 15.4423H93.9555V24ZM117.207 17.3598L117.242 15.4423C116.781 15.9039 115.964 16.1525 114.259 16.472C111.632 16.9692 110.779 17.7149 110.779 19.2062C110.779 20.5201 111.561 21.1593 113.017 21.1593C115.396 21.1593 117.171 19.4193 117.207 17.3598ZM121.858 24H117.562C117.42 23.5739 117.313 22.9702 117.278 22.4376C116.177 23.6449 114.33 24.4616 111.987 24.4616C108.01 24.4616 106.163 22.5086 106.163 19.6679C106.163 14.6256 109.537 14.0574 114.188 13.4182C116.496 13.0987 117.136 12.637 117.136 11.4297C117.136 10.2934 115.999 9.61875 114.188 9.61875C112.093 9.61875 111.241 10.6485 111.028 12.2109H106.731C106.802 8.58898 108.791 6.06782 114.401 6.06782C119.941 6.06782 121.858 8.55347 121.858 12.9566V24ZM134.163 24.5326V21.6919C133.524 23.2543 131.606 24.1775 129.44 24.1775C125.783 24.1775 123.049 21.6919 123.049 17.8569V6.52944H127.665V17.1822C127.665 19.3483 128.659 20.4491 130.612 20.4491C132.707 20.4491 134.163 19.0642 134.163 17.1822V6.52944H138.779V24.4616C138.779 29.3974 135.228 32.2737 130.754 32.2737C125.641 32.2737 123.049 29.4684 123.049 24.9588H127.345C127.345 27.0183 128.553 28.2966 130.967 28.2966C132.636 28.2966 134.163 26.8407 134.163 24.5326Z" fill="#3AB75C"/>
</svg>
