<svg width="24" height="24" viewBox="0 0 24 24" fill="none" xmlns="http://www.w3.org/2000/svg">
<g clip-path="url(#clip0_498_12900)">
<path d="M12.918 16.5898L9.24585 20.262C9.24585 20.262 9.24585 20.2621 9.24576 20.2621C9.24576 20.2621 9.24576 20.2621 9.24568 20.2621C7.72715 21.7808 5.25616 21.7808 3.73746 20.2621C3.00174 19.5264 2.59666 18.5483 2.59666 17.5079C2.59666 16.4677 3.00174 15.4897 3.7372 14.754C3.73729 14.7539 3.73738 14.7538 3.73746 14.7538L7.40958 11.0816C7.91653 10.5745 7.91653 9.75241 7.40949 9.24545C6.90253 8.7385 6.08043 8.7385 5.57339 9.24545L1.90128 12.9177C1.90102 12.9179 1.90076 12.9183 1.9005 12.9185C0.674959 14.1445 0 15.7744 0 17.5079C0 19.2419 0.675219 20.8721 1.90136 22.0982C3.16698 23.3638 4.82927 23.9966 6.49166 23.9966C8.15404 23.9966 9.81642 23.3638 11.0819 22.0982C11.082 22.0982 11.082 22.0981 11.082 22.0981L14.7541 18.4259C15.261 17.9189 15.261 17.0968 14.754 16.5898C14.2471 16.0828 13.4251 16.0828 12.918 16.5898Z" fill="white"/>
<path d="M23.9998 6.49148C23.9998 4.75752 23.3245 3.12733 22.0984 1.90119C19.5673 -0.629866 15.4489 -0.62978 12.9179 1.90119C12.9178 1.90136 12.9176 1.90145 12.9175 1.90162L9.24552 5.57356C8.73847 6.08052 8.73847 6.90271 9.24552 7.40966C9.49912 7.66327 9.83132 7.78999 10.1636 7.78999C10.4958 7.78999 10.8282 7.66318 11.0816 7.40966L14.7536 3.73772C14.7537 3.73755 14.7539 3.73746 14.7541 3.73729C16.2726 2.21876 18.7436 2.21867 20.2623 3.73729C20.9979 4.47301 21.4032 5.45117 21.4032 6.49148C21.4032 7.5317 20.9981 8.50969 20.2625 9.24541L20.2623 9.24568L16.5902 12.9179C16.0832 13.4248 16.0832 14.2469 16.5903 14.754C16.8438 15.0075 17.1761 15.1343 17.5083 15.1343C17.8406 15.1343 18.1728 15.0075 18.4264 14.754L22.0985 11.0818C22.0987 11.0815 22.099 11.0812 22.0993 11.0809C23.3248 9.85494 23.9998 8.22501 23.9998 6.49148Z" fill="white"/>
<path d="M7.40958 16.59C7.6631 16.8435 7.99538 16.9703 8.32758 16.9703C8.65987 16.9703 8.99216 16.8435 9.24568 16.59L16.5901 9.24561C17.0971 8.73866 17.0971 7.91655 16.5901 7.40951C16.0831 6.90256 15.261 6.90256 14.754 7.40951L7.40958 14.7538C6.90254 15.261 6.90254 16.0831 7.40958 16.59Z" fill="white"/>
</g>
<defs>
<clipPath id="clip0_498_12900">
<rect width="24" height="24" fill="white"/>
</clipPath>
</defs>
</svg>
