<svg width="70" height="48" viewBox="0 0 70 48" fill="none" xmlns="http://www.w3.org/2000/svg">
<rect x="1" y="1" width="68" height="46" rx="7" fill="white" stroke="#E4E4E7" stroke-width="2"/>
<path d="M54.9941 28.6381H55.0293L57.9482 21.3119H60L53.6924 36.0004H51.7471L54.0918 30.8617L49.9531 21.3119H52.0049L54.9941 28.6381ZM45.123 20.9789C46.5181 20.9789 47.6198 21.3595 48.4287 22.1088C49.2376 22.8581 49.6367 23.9048 49.6367 25.225V31.516H47.8311V30.101H47.749C46.9636 31.2664 45.9321 31.849 44.6309 31.849C43.5289 31.849 42.5911 31.516 41.8525 30.85C41.1258 30.2316 40.715 29.3161 40.7383 28.3529C40.7383 27.2944 41.1375 26.4618 41.9229 25.8314C42.7083 25.2011 43.7632 24.892 45.0762 24.892C46.2016 24.892 47.116 25.1058 47.8428 25.5101V25.0697C47.8427 24.4157 47.5615 23.7976 47.0693 23.3695C46.5652 22.9176 45.9202 22.6674 45.252 22.6674C44.197 22.6674 43.3644 23.1191 42.7549 24.0228L41.0908 22.9652C41.9818 21.6451 43.3295 20.9789 45.123 20.9789ZM36.1787 16.6019C37.3861 16.5782 38.5583 17.0416 39.4141 17.8978C41.1256 19.5153 41.2311 22.2393 39.625 23.9877L39.4141 24.2015C38.5349 25.046 37.4565 25.474 36.1787 25.474H33.0605V31.516H31.1729V16.6019H36.1787ZM45.3701 26.4379C44.6081 26.4379 43.9631 26.6278 43.4473 26.9965C42.9431 27.3651 42.6856 27.8291 42.6855 28.3881C42.6855 28.8876 42.9197 29.3516 43.3066 29.6371C43.7287 29.97 44.2449 30.148 44.7725 30.1361C45.5696 30.136 46.3318 29.8153 46.8945 29.2445C47.5159 28.6499 47.832 27.9477 47.832 27.139C47.2458 26.6635 46.4251 26.426 45.3701 26.4379ZM33.0605 23.6429H36.2266C36.93 23.6666 37.6102 23.3809 38.0908 22.8695C39.0755 21.8348 39.0522 20.1693 38.0322 19.1703C37.5516 18.6947 36.9065 18.4331 36.2266 18.433H33.0605V23.6429Z" fill="#3C4043"/>
<path d="M26.544 24.1659C26.544 23.5831 26.4971 23.0003 26.4034 22.4294H18.4434V25.7239H23.0037C22.8161 26.7825 22.2065 27.734 21.3155 28.3286V30.4695H24.0353C25.6296 28.9828 26.544 26.7825 26.544 24.1659Z" fill="#4285F4"/>
<path d="M18.4437 32.539C20.718 32.539 22.6406 31.7778 24.0357 30.4695L21.3159 28.3287C20.5539 28.852 19.5809 29.1493 18.4437 29.1493C16.2398 29.1493 14.3758 27.6388 13.7076 25.6169H10.9058V27.8291C12.336 30.7193 15.255 32.539 18.4437 32.539Z" fill="#34A853"/>
<path d="M13.708 25.6169C13.3563 24.5584 13.3563 23.4048 13.708 22.3343V20.134H10.9058C9.69808 22.5484 9.69808 25.4029 10.9058 27.8172L13.708 25.6169Z" fill="#FBBC04"/>
<path d="M18.4437 18.802C19.6512 18.7783 20.8118 19.2421 21.6793 20.0865L24.0943 17.6365C22.5585 16.1855 20.5422 15.3886 18.4437 15.4124C15.255 15.4124 12.336 17.244 10.9058 20.1341L13.7076 22.3463C14.3758 20.3125 16.2398 18.802 18.4437 18.802Z" fill="#EA4335"/>
</svg>
