<svg width="70" height="48" viewBox="0 0 70 48" fill="none" xmlns="http://www.w3.org/2000/svg">
<rect x="1" y="1" width="68" height="46" rx="7" fill="#1F72CD" stroke="#E4E4E7" stroke-width="2"/>
<path fill-rule="evenodd" clip-rule="evenodd" d="M13.3622 17L7 31.4935H14.6165L15.5607 29.1826H17.719L18.6632 31.4935H27.0468V29.7298L27.7938 31.4935H32.1305L32.8775 29.6925V31.4935H50.3131L52.4332 29.2426L54.4183 31.4935L63.3736 31.5121L56.9913 24.2872L63.3736 17H54.5572L52.4935 19.2093L50.5708 17H31.6032L29.9744 20.7409L28.3074 17H20.7069V18.7037L19.8614 17H13.3622ZM39.3984 19.0581H49.4108L52.4731 22.4633L55.6341 19.0581H58.6964L54.0436 24.2852L58.6964 29.452H55.4952L52.4329 26.0073L49.2558 29.452H39.3984V19.0581ZM41.8711 23.1099V21.2114V21.2096H48.1185L50.8445 24.2458L47.9977 27.2986H41.8711V25.226H47.3333V23.1099H41.8711ZM14.8357 19.0581H18.5483L22.7683 28.8862V19.0581H26.8354L30.0949 26.1048L33.0989 19.0581H37.1456V29.4581H34.6833L34.6632 21.3087L31.0733 29.4581H28.8707L25.2607 21.3087V29.4581H20.1951L19.2348 27.1266H14.0465L13.0881 29.4561H10.374L14.8357 19.0581ZM14.9326 24.9712L16.642 20.8177L18.3493 24.9712H14.9326Z" fill="white"/>
</svg>
