<svg width="70" height="48" viewBox="0 0 70 48" fill="none" xmlns="http://www.w3.org/2000/svg">
<rect x="1" y="1" width="68" height="46" rx="7" fill="white" stroke="#E4E4E7" stroke-width="2"/>
<path fill-rule="evenodd" clip-rule="evenodd" d="M21.2505 32.5166H17.0099L13.8299 20.3848C13.679 19.8268 13.3585 19.3334 12.8871 19.1009C11.7106 18.5165 10.4142 18.0515 9 17.8169V17.3499H15.8313C16.7742 17.3499 17.4813 18.0515 17.5991 18.8663L19.2491 27.6174L23.4877 17.3499H27.6104L21.2505 32.5166ZM29.9673 32.5166H25.9624L29.2602 17.3499H33.2652L29.9673 32.5166ZM38.4466 21.5514C38.5645 20.7346 39.2716 20.2675 40.0966 20.2675C41.393 20.1502 42.8051 20.3848 43.9837 20.9671L44.6908 17.7016C43.5122 17.2345 42.2159 17 41.0394 17C37.1523 17 34.3238 19.1008 34.3238 22.0165C34.3238 24.2346 36.3273 25.3992 37.7416 26.1008C39.2716 26.8004 39.8609 27.2675 39.743 27.9671C39.743 29.0165 38.5645 29.4836 37.388 29.4836C35.9738 29.4836 34.5595 29.1338 33.2652 28.5494L32.5581 31.8169C33.9723 32.3992 35.5024 32.6338 36.9166 32.6338C41.2751 32.749 43.9837 30.6502 43.9837 27.5C43.9837 23.5329 38.4466 23.3004 38.4466 21.5514ZM57.9998 32.5166L54.8199 17.3499H51.4042C50.6971 17.3499 49.9899 17.8169 49.7542 18.5165L43.8657 32.5166H47.9885L48.8114 30.3005H53.877L54.3484 32.5166H57.9998ZM51.9934 21.4341L53.1699 27.1502H49.8721L51.9934 21.4341Z" fill="#172B85"/>
</svg>
