<svg width="70" height="48" viewBox="0 0 70 48" fill="none" xmlns="http://www.w3.org/2000/svg">
<rect width="70" height="48" rx="8" fill="#00D54B"/>
<path fill-rule="evenodd" clip-rule="evenodd" d="M42.2493 0C47.0821 0 49.4751 0 52.1026 0.821114C53.5103 1.33724 54.7771 2.1349 55.8328 3.19062C56.8886 4.24633 57.7097 5.5132 58.2023 6.92082C59.0235 9.52493 59.0235 11.9179 59.0235 16.7507V31.2493C59.0235 36.0587 59.0235 38.4751 58.2023 41.0792C57.6862 42.4868 56.8886 43.7537 55.8328 44.8094C54.7771 45.8651 53.5103 46.6862 52.1026 47.1789C49.4985 48 47.1056 48 42.2727 48H27.7273C22.9179 48 20.5015 48 17.8974 47.1789C16.4897 46.6628 15.2229 45.8651 14.1672 44.8094C13.1114 43.7537 12.2903 42.4868 11.7977 41.0792C11 38.4751 11 36.1056 11 31.2493V16.7273C11 11.9179 11 9.50147 11.8211 6.89736C12.3372 5.48974 13.1349 4.22287 14.1906 3.16716C15.2463 2.11144 16.5132 1.29032 17.9208 0.797654C20.5015 0 22.9179 0 27.7273 0H42.2493Z" fill="#00D54B"/>
<path d="M36.2196 15.742C38.5891 15.742 40.8648 16.5866 42.6712 18.1115C42.8589 18.2757 43.0935 18.3696 43.3516 18.3696C43.6096 18.3696 43.8442 18.2523 44.0319 18.088L45.8853 16.2347C45.9791 16.1408 46.0495 16.0235 46.0964 15.9062C46.1433 15.7889 46.1668 15.6482 46.1668 15.5309C46.1668 15.3901 46.1199 15.2728 46.073 15.1555C46.026 15.0382 45.9322 14.9209 45.8384 14.8505C44.3838 13.6071 42.6947 12.6687 40.8882 12.0822L41.4513 9.3373C41.4747 9.19654 41.4747 9.05578 41.4513 8.91502C41.4278 8.77425 41.3574 8.65695 41.2636 8.53965C41.1697 8.42235 41.0524 8.32851 40.9351 8.28159C40.7944 8.2112 40.6536 8.18774 40.5128 8.18774H36.9469C36.7357 8.18774 36.5011 8.25812 36.3369 8.39889C36.1727 8.53965 36.0554 8.72733 35.985 8.93848L35.4923 11.3784C30.7299 11.613 26.6947 13.959 26.6947 18.7918C26.6947 22.9678 30.026 24.7508 33.5451 26.0177C36.8765 27.2611 38.636 27.7068 38.636 29.4663C38.636 31.2024 36.8765 32.305 34.2724 32.305C31.7621 32.352 29.3222 31.3901 27.4923 29.654C27.3046 29.4663 27.07 29.3725 26.812 29.3725C26.5539 29.3725 26.3193 29.4663 26.1316 29.654L24.1375 31.6012C24.0436 31.6951 23.9733 31.7889 23.9263 31.9062C23.8794 32.0235 23.856 32.1643 23.856 32.2816C23.856 32.4223 23.8794 32.5396 23.9263 32.657C23.9733 32.7743 24.0436 32.8916 24.1375 32.9619C25.7563 34.4869 27.7269 35.566 29.8853 36.1056L29.3222 38.6394C29.2988 38.7801 29.2988 38.9209 29.3222 39.0616C29.3457 39.2024 29.4161 39.3432 29.5099 39.437C29.6038 39.5543 29.7211 39.6482 29.8384 39.7185C29.9791 39.7889 30.1199 39.8124 30.2606 39.8124H33.8501C34.0612 39.8124 34.2958 39.742 34.4601 39.6012C34.6243 39.4605 34.765 39.2728 34.812 39.0382L35.3281 36.6218C41.029 36.2699 44.5011 33.1965 44.5011 28.7156C44.5011 24.5866 41.029 22.8505 36.8061 21.4194C34.3897 20.5045 32.3017 19.9179 32.3017 18.135C32.3252 16.3754 34.2724 15.742 36.2196 15.742Z" fill="white"/>
</svg>
