<svg width="70" height="48" viewBox="0 0 70 48" fill="none" xmlns="http://www.w3.org/2000/svg">
<rect x="1" y="1" width="68" height="46" rx="7" fill="white" stroke="#E4E4E7" stroke-width="2"/>
<path d="M30 46L68 34.5V40C68 43.3137 65.3137 46 62 46H30Z" fill="#FD6020"/>
<path d="M30.3691 18.2217C31.1008 18.2218 31.9373 18.3291 32.5645 18.7589V20.9083C32.0419 20.2636 31.2053 19.8332 30.3691 19.8331C28.6968 19.9405 27.3381 21.445 27.4424 23.1641V23.3799C27.4426 25.099 28.8013 26.3878 30.4736 26.3878C31.3098 26.3877 32.0418 25.9582 32.5645 25.3135V27.463C31.8328 27.7853 31.1008 28 30.2646 28.0001C27.6514 28.0001 25.5605 25.743 25.5605 23.0567C25.5608 20.2631 27.6515 18.0068 30.3691 18.2217ZM46.7812 24.669L49.2891 18.2217H51.1709L47.3037 28.0001H46.3623L42.4951 18.2217H44.377L46.7812 24.669ZM22.0068 18.0069C22.9475 18.0069 23.8884 18.4365 24.6201 19.0811L23.6797 20.3712C23.2616 19.9413 22.7385 19.6182 22.2158 19.6182C21.5888 19.511 21.0664 20.0488 20.9619 20.6934C20.962 21.2304 21.2754 21.4454 22.3203 21.8751C24.4109 22.7347 24.9336 23.3796 25.0381 24.669V24.9913C24.9336 26.7105 23.5748 28.0001 21.9023 27.8926C20.648 27.8926 19.3938 27.2474 18.7666 26.0655L19.916 24.8839C20.2296 25.636 20.9617 26.1729 21.7979 26.1729H21.9023C22.5295 26.1729 23.1572 25.5286 23.1572 24.7764C23.1572 24.3466 22.9474 24.0245 22.6338 23.8096C22.2157 23.5948 21.7979 23.379 21.3799 23.2715C19.7076 22.7343 19.1846 21.9827 19.1846 20.6934V20.586C19.2891 19.0817 20.5435 17.8995 22.0068 18.0069ZM11.1357 18.2217C13.6443 18.3292 15.6306 20.478 15.5264 23.0567C15.5263 24.4536 14.8988 25.7439 13.8535 26.711C12.9128 27.463 11.763 27.8926 10.6133 27.7852H8V18.2217H11.1357ZM18.0352 27.7852H16.2578V18.2217H18.0352V27.7852ZM57.0244 19.8331H53.7842V21.9825H56.9199V23.5948H53.7842V26.1729H57.0244V27.7852H52.0068V18.2217H57.0244V19.8331ZM60.7871 18.2217C62.8777 18.2218 64.0273 19.189 64.0273 21.0157C64.1318 22.4125 63.1908 23.5947 61.9365 23.8096L64.7588 27.7852H62.5645L60.1602 23.9171H59.9512V27.7852H58.1738V18.2217H60.7871ZM12.7041 20.586C12.0769 20.0487 11.136 19.7256 10.2998 19.8331H9.77734V26.1729H10.2998C11.136 26.2804 12.0769 25.9582 12.7041 25.421C13.3312 24.7763 13.6445 23.9163 13.6445 22.9493C13.6444 22.0899 13.3311 21.2306 12.7041 20.586ZM59.9512 22.627H60.4736C61.6234 22.627 62.1464 22.0901 62.1465 21.1231C62.1465 20.2635 61.6235 19.7266 60.4736 19.7266H59.9512V22.627Z" fill="black"/>
<path fill-rule="evenodd" clip-rule="evenodd" d="M37.8953 18C35.282 18 33.0869 20.1491 33.0869 22.9429C33.0869 25.6292 35.1775 27.8858 37.8953 27.9932C40.613 28.1007 42.7036 25.8441 42.8082 23.0503C42.7036 20.2565 40.613 18 37.8953 18V18Z" fill="#FD6020"/>
</svg>
