<svg width="70" height="48" viewBox="0 0 70 48" fill="none" xmlns="http://www.w3.org/2000/svg">
<rect x="1" y="1" width="68" height="46" rx="7" fill="white" stroke="#E4E4E7" stroke-width="2"/>
<path fill-rule="evenodd" clip-rule="evenodd" d="M16.6923 17.8659C17.6324 17.9452 18.5725 17.3901 19.16 16.6863C19.7378 15.9627 20.1197 14.9913 20.0218 14C19.1894 14.0397 18.1612 14.5551 17.5736 15.2787C17.0351 15.9032 16.5748 16.9143 16.6923 17.8659ZM27.875 30.6334V15.1797H33.6036C36.561 15.1797 38.6272 17.2415 38.6272 20.2549C38.6272 23.2684 36.5218 25.35 33.5253 25.35H30.2448V30.6334H27.875ZM20.012 18.0542C19.1838 18.006 18.4281 18.3063 17.8177 18.549C17.4249 18.7051 17.0923 18.8373 16.8392 18.8373C16.5552 18.8373 16.2089 18.698 15.82 18.5416C15.3104 18.3367 14.7278 18.1025 14.1169 18.1137C12.7166 18.1335 11.4142 18.9364 10.6993 20.2152C9.23044 22.7726 10.3174 26.5592 11.7373 28.6409C12.4326 29.6718 13.265 30.8018 14.3617 30.7622C14.8442 30.7437 15.1913 30.5947 15.5505 30.4404C15.9641 30.2627 16.3937 30.0782 17.0645 30.0782C17.712 30.0782 18.1228 30.2579 18.5172 30.4304C18.8921 30.5945 19.2522 30.752 19.7868 30.7423C20.9227 30.7225 21.6376 29.7114 22.3328 28.6805C23.0831 27.5741 23.4129 26.4942 23.4629 26.3304L23.4688 26.3114C23.4682 26.3108 23.4655 26.3094 23.4608 26.3071L23.4419 26.2983C23.1911 26.1821 21.274 25.2937 21.2557 22.9114C21.2372 20.9118 22.7762 19.8987 23.0185 19.7392L23.0185 19.7392C23.0333 19.7295 23.0432 19.723 23.0477 19.7195C22.0684 18.2525 20.5408 18.0939 20.012 18.0542ZM42.9556 30.7522C44.4441 30.7522 45.8248 29.989 46.4515 28.7796H46.5005V30.6333H48.694V22.9411C48.694 20.7108 46.9314 19.2734 44.2188 19.2734C41.7021 19.2734 39.8416 20.7306 39.773 22.7329H41.9078C42.0841 21.7813 42.9556 21.1568 44.1503 21.1568C45.5996 21.1568 46.4123 21.8408 46.4123 23.0997V23.9522L43.455 24.1306C40.7033 24.2991 39.2148 25.4391 39.2148 27.4216C39.2148 29.4239 40.7523 30.7522 42.9556 30.7522ZM43.5926 28.9186C42.3294 28.9186 41.5264 28.304 41.5264 27.3623C41.5264 26.3909 42.3 25.8258 43.7786 25.7366L46.4128 25.5681V26.4404C46.4128 27.8877 45.1986 28.9186 43.5926 28.9186ZM55.9706 31.2379C55.0207 33.9441 53.9337 34.8362 51.6227 34.8362C51.4464 34.8362 50.8589 34.8164 50.7218 34.7767V32.9231C50.8687 32.9429 51.231 32.9627 51.4171 32.9627C52.4649 32.9627 53.0524 32.5167 53.4147 31.3569L53.6302 30.6729L49.6152 19.4221H52.0927L54.8836 28.5516H54.9326L57.7234 19.4221H60.1324L55.9706 31.2379ZM30.2451 17.2017H32.9772C35.0337 17.2017 36.2088 18.3119 36.2088 20.2647C36.2088 22.2174 35.0337 23.3376 32.9674 23.3376H30.2451V17.2017Z" fill="black"/>
</svg>
