<svg width="34" height="25" viewBox="0 0 34 25" fill="none" xmlns="http://www.w3.org/2000/svg">
<rect x="0.5" y="1" width="33" height="23" rx="3.5" fill="white"/>
<rect x="0.5" y="1" width="33" height="23" rx="3.5" stroke="#F2F4F7"/>
<path d="M21.8604 9.43994C23.0644 9.44007 24.2001 10.5569 24.207 12.606C24.207 14.8457 23.0851 15.8636 21.8535 15.8638C21.2483 15.8638 20.8835 15.6022 20.6357 15.4185L20.6289 17.4175L18.9082 17.7925V9.55322H20.4219L20.5117 9.9917C20.7526 9.76559 21.1861 9.43994 21.8604 9.43994ZM7.18359 9.43994C7.75453 9.43999 8.31871 9.53205 8.88965 9.76514V11.4263C8.36684 11.1366 7.70648 10.9742 7.18359 10.9741C6.81904 10.9741 6.5988 11.0796 6.59863 11.355C6.59863 12.1463 9.21933 11.7722 9.22656 13.8774C9.22656 15.1423 8.24277 15.8706 6.81152 15.8706C6.21978 15.8706 5.57252 15.7499 4.93262 15.4673V13.7856C5.5106 14.1107 6.24041 14.3511 6.81152 14.3511C7.1968 14.3511 7.4716 14.2453 7.47168 13.9204C7.47168 13.0796 4.85742 13.3902 4.85742 11.4399C4.85749 10.1893 5.78681 9.43994 7.18359 9.43994ZM11.2432 9.56006H12.5498V11.0659H11.2432V13.5737C11.2432 14.619 12.329 14.2947 12.5498 14.2026V15.6372C12.3227 15.7643 11.9097 15.8706 11.3457 15.8706C10.3275 15.8704 9.56348 15.0998 9.56348 14.0542L9.57031 8.39502L11.25 8.02686L11.2432 9.56006ZM27.1445 9.43994C28.7752 9.43994 29.6288 10.8675 29.6289 12.6763C29.6289 12.8457 29.6153 13.2128 29.6152 13.3052H26.25C26.3257 14.1389 26.9176 14.3793 27.585 14.3794C28.2662 14.3794 28.8036 14.231 29.2715 13.9907V15.4038C28.8036 15.6723 28.1839 15.8637 27.3652 15.8638C25.6863 15.8638 24.5166 14.7894 24.5166 12.6626C24.5166 10.8679 25.507 9.4401 27.1445 9.43994ZM14.6904 10.0835C15.0961 9.32102 15.9001 9.47522 16.1211 9.56006V11.186C15.9074 11.1083 15.2202 11.0095 14.8145 11.5532V15.7437H13.0938V9.56006H14.5801L14.6904 10.0835ZM18.2686 15.7437H16.541V9.56006H18.2686V15.7437ZM21.4473 11.0093C21.0553 11.0093 20.8078 11.1503 20.6289 11.355L20.6357 13.9771C20.8009 14.1606 21.0416 14.3091 21.4473 14.3091C22.0802 14.3091 22.5067 13.6024 22.5068 12.6558C22.5068 11.7301 22.0734 11.0093 21.4473 11.0093ZM27.1377 10.8745C26.7042 10.8746 26.2295 11.207 26.2295 12.0054H28.0049C28.0049 11.2069 27.5574 10.8745 27.1377 10.8745ZM18.2686 8.64209L16.541 9.02393V7.58154L18.2686 7.20752V8.64209Z" fill="#6461FC"/>
</svg>
