<svg width="24" height="24" viewBox="0 0 24 24" fill="none" xmlns="http://www.w3.org/2000/svg">
<g clip-path="url(#clip0_257_9306)">
<path d="M22.5933 22.5935H20.7158V23.9998H23.9995V20.7161H22.5933V22.5935Z" fill="#168E2C"/>
<path d="M1.40625 1.40625H3.28364V0H0V3.28364H1.40625V1.40625Z" fill="#168E2C"/>
<path d="M1.40625 20.7161H0V23.9998H3.28364V22.5935H1.40625V20.7161Z" fill="#168E2C"/>
<path d="M20.7158 0V1.40625H22.5933V3.28364H23.9995V0H20.7158Z" fill="#168E2C"/>
<path d="M12 11.619C14.1039 11.619 15.8095 9.91345 15.8095 7.80953C15.8095 5.70562 14.1039 4.00006 12 4.00006C9.89603 4.00006 8.19043 5.70562 8.19043 7.80953C8.19043 9.91345 9.89603 11.619 12 11.619Z" fill="#168E2C"/>
<path d="M12.8077 12.3813H11.1925C10.245 12.3843 9.30729 12.5739 8.43304 12.9392C7.55878 13.3046 6.76506 13.8386 6.09718 14.5107C5.42929 15.1828 4.90034 15.9799 4.54051 16.8564C4.18068 17.733 3.99703 18.6718 4.00004 19.6193C4.00004 19.7203 4.04017 19.8172 4.11162 19.8887C4.18306 19.9601 4.27996 20.0002 4.38099 20.0002H19.6192C19.725 19.9906 19.8231 19.9412 19.8938 19.862C19.9645 19.7828 20.0025 19.6797 20.0002 19.5736C19.9962 17.6673 19.2371 15.8402 17.8891 14.4923C16.5411 13.1444 14.7141 12.3853 12.8077 12.3813Z" fill="#168E2C"/>
</g>
<defs>
<clipPath id="clip0_257_9306">
<rect width="24" height="24" fill="white"/>
</clipPath>
</defs>
</svg>
