<svg xmlns="http://www.w3.org/2000/svg" viewBox="0 0 48 32" width="48" height="32"><rect width="48" height="32" rx="4" fill="#1434CB"/><path d="M19.5 21h-2.4l-1.5-5.8c-.1-.3-.2-.4-.4-.5-.4-.2-1.1-.4-1.7-.5l0-.2h3c.4 0 .7.3.8.7l.7 3.8 1.8-4.5h2.3l-3.6 7zm4.8 0h-2.2l1.8-7h2.2l-1.8 7zm7.2-5c0-.2.2-.3.5-.4.8-.2 2-.4 3.2.6l.6-1.8c-.7-.3-1.5-.5-2.5-.5-2.4 0-4 1.3-4 3.1 0 1.4 1.2 2.1 2.1 2.6s1.2.8 1.2 1.3c0 .7-.8 1-1.6 1-.9 0-1.8-.2-2.5-.6l-.6 1.9c.8.3 1.8.5 2.8.5 2.5 0 4.2-1.2 4.2-3.1 0-2.4-3.4-2.5-3.4-3.6zm8.8-2h-1.8c-.4 0-.8.2-.9.6l-3.2 6.4h2.4l.5-1.3h2.9l.3 1.3h2.1l-1.8-7h-.5zm-3.1 4.5l1.2-3.3.7 3.3h-1.9z" fill="white"/></svg>
